<?xml version="1.0" encoding="UTF-8"?>
<!DOCTYPE svg PUBLIC "-//W3C//DTD SVG 1.1//EN" "http://www.w3.org/Graphics/SVG/1.1/DTD/svg11.dtd">
<svg version="1.1" xmlns="http://www.w3.org/2000/svg" xmlns:xlink="http://www.w3.org/1999/xlink" x="0px" y="0px" width="841.89" height="595.275" viewBox="0, 0, 841.89, 595.275">
  <g id="Layer 1">
    <g>
      <path d="M786.881,271.549 C785.345,264.458 782.96,257.468 779.264,250.94 C773.76,241.138 765.112,232.528 753.177,226.836 C741.238,221.103 726.269,218.108 707.5,218.106 C690.809,218.108 677.145,220.474 665.91,225.025 C657.498,228.432 650.492,233.113 644.943,238.726 C636.588,247.156 631.685,257.471 628.957,268.014 C626.216,278.587 625.508,289.513 625.499,300.105 C625.499,336.103 625.499,369.103 625.499,369.106 L625.499,382.978 L638.663,378.591 C639.367,378.329 643.747,376.892 648.651,372.85 C651.085,370.818 653.663,368.07 655.667,364.401 C657.678,360.75 659.015,356.152 658.999,351.104 C658.999,337.603 658.999,318.104 658.999,300.105 C658.993,293.635 659.285,287.194 660.374,281.416 C661.186,277.079 662.432,273.139 664.217,269.726 C666.941,264.611 670.627,260.543 677.157,257.222 C683.687,253.942 693.383,251.6 707.5,251.605 C720.039,251.601 729.112,253.452 735.54,256.166 C740.375,258.211 743.769,260.69 746.409,263.504 C750.332,267.712 752.722,272.947 754.181,279.282 C755.629,285.585 756.007,292.826 755.998,300.106 C755.998,322.605 755.998,337.604 755.998,351.105 C755.983,356.153 757.319,360.751 759.328,364.402 C762.36,369.917 766.569,373.31 769.877,375.418 C773.216,377.523 775.802,378.408 776.335,378.593 L789.498,382.98 L789.498,369.108 C789.498,369.105 789.498,336.105 789.498,300.107 C789.495,290.687 788.926,281.012 786.881,271.549 z" fill="#AAB700"/>
      <path d="M429.999,218.776 L394.999,218.776 C378.309,218.778 364.645,221.144 353.412,225.695 C344.999,229.102 337.994,233.784 332.445,239.396 C324.089,247.827 319.187,258.143 316.457,268.684 C313.717,279.257 313.007,290.183 312.999,300.774 C312.999,336.773 312.999,369.773 312.999,369.775 L312.999,383.648 L326.162,379.261 C326.866,378.999 331.247,377.562 336.151,373.518 C338.588,371.487 341.163,368.741 343.17,365.07 C345.178,361.421 346.516,356.822 346.5,351.774 C346.5,338.273 346.5,314.275 346.5,300.774 C346.496,291.385 347.559,283.656 349.485,277.547 C352.464,268.359 356.832,262.857 363.726,258.747 C370.649,254.682 380.881,252.262 394.999,252.274 C413,252.274 398.499,252.274 411.999,252.274 C417.049,252.291 421.645,250.953 425.294,248.944 C430.81,245.911 434.203,241.703 436.312,238.396 C438.418,235.056 439.301,232.47 439.486,231.936 L443.874,218.775 L429.999,218.775 z" fill="#AAB700"/>
      <path d="M600.381,270.72 C598.845,263.63 596.46,256.639 592.764,250.112 C587.26,240.309 578.614,231.7 566.677,226.006 C554.738,220.274 539.77,217.279 521,217.275 C504.308,217.279 490.645,219.645 479.41,224.196 C470.999,227.603 463.993,232.282 458.445,237.897 C450.088,246.328 445.185,256.641 442.458,267.183 C439.718,277.757 439.006,288.682 438.999,299.274 C439.004,308.691 439.571,318.367 441.618,327.83 C443.153,334.92 445.539,341.911 449.233,348.437 C454.738,358.24 463.385,366.849 475.321,372.544 C487.26,378.274 502.228,381.269 521,381.273 C537.689,381.271 551.354,378.905 562.588,374.353 C571,370.947 578.006,366.267 583.553,360.653 C591.91,352.222 596.813,341.907 599.54,331.366 C602.28,320.79 602.993,309.867 602.999,299.274 C602.995,289.859 602.426,280.182 600.381,270.72 z M550.257,342.472 C543.749,345.612 534.344,347.779 521,347.774 C509.143,347.779 500.378,346.066 494.023,343.481 C489.245,341.534 485.786,339.142 483.053,336.393 C478.99,332.277 476.392,327.145 474.726,320.787 C473.07,314.462 472.49,307.034 472.498,299.275 C472.494,292.379 472.945,285.743 474.213,279.912 C475.163,275.533 476.552,271.628 478.46,268.264 C481.361,263.225 485.231,259.256 491.74,256.078 C498.248,252.939 507.653,250.772 520.999,250.774 C532.853,250.772 541.62,252.484 547.972,255.069 C552.751,257.015 556.212,259.408 558.944,262.157 C563.007,266.272 565.605,271.405 567.271,277.764 C568.927,284.089 569.505,291.517 569.499,299.275 C569.504,306.172 569.052,312.808 567.784,318.637 C566.835,323.016 565.446,326.922 563.538,330.286 C560.636,335.325 556.766,339.295 550.257,342.472 z" fill="#AAB700"/>
      <g>
        <path d="M269.375,234.401 C268.976,235.164 268.504,236.001 267.939,236.898 C265.831,240.205 262.438,244.414 256.924,247.446 C253.273,249.456 248.675,250.793 243.626,250.776 C230.125,250.776 216.627,250.776 207.626,250.776 C200.348,250.767 193.106,251.146 186.803,252.593 C180.467,254.051 175.234,256.443 171.024,260.365 C168.21,263.005 165.732,266.398 163.688,271.233 C160.972,277.662 159.123,286.734 159.126,299.277 C159.122,313.391 161.464,323.087 164.744,329.617 C168.062,336.146 172.132,339.834 177.247,342.557 C180.659,344.341 184.599,345.587 188.937,346.4 C194.714,347.49 201.156,347.781 207.625,347.776 C216.624,347.774 230.124,347.774 243.625,347.776 C248.674,347.759 253.271,349.096 256.923,351.106 C260.591,353.112 263.338,355.688 265.369,358.124 C267.192,360.335 268.482,362.436 269.377,364.145 C281.771,345.579 289,323.272 289,299.275 C289,275.276 281.77,252.968 269.375,234.401 z" fill="#AAB700"/>
        <path d="M207.626,381.275 C197.033,381.267 186.108,380.557 175.535,377.816 C164.992,375.088 154.677,370.187 146.247,361.831 C140.634,356.282 135.952,349.275 132.547,340.863 C127.995,329.63 125.629,315.966 125.627,299.277 C125.631,280.505 128.624,265.536 134.356,253.597 C140.049,241.66 148.66,233.013 158.461,227.51 C164.988,223.814 171.98,221.429 179.07,219.893 C188.533,217.847 198.21,217.28 207.625,217.275 C231.454,217.275 247.388,217.275 255.445,217.275 C234.217,195.676 204.675,182.275 171.999,182.275 C107.382,182.275 54.999,234.658 54.999,299.275 C54.999,363.892 107.382,416.275 171.999,416.275 C204.675,416.275 234.217,402.874 255.445,381.275 C247.389,381.275 231.455,381.275 207.626,381.275 z" fill="#AAB700"/>
      </g>
    </g>
  </g>
  <defs/>
</svg>
